<svg height="50px" viewBox="0 0 278 247" fill="none" xmlns="http://www.w3.org/2000/svg">
<path d="M194.786 47.0906L245.418 15.5164C250.731 12.1485 255.419 11.7275 259.482 14.2535C263.701 16.7794 265.811 21.4103 265.811 28.1461V149.391C265.811 153.769 264.795 158.484 262.764 163.536C260.888 168.588 258.388 173.303 255.263 177.681C252.294 181.891 249.012 185.091 245.418 187.28L278 167.072V192.332L194.786 244.113C189.317 247.481 184.551 247.902 180.488 245.376C176.425 242.85 174.393 238.219 174.393 231.484V84.9795C174.393 80.4329 175.331 75.7178 177.206 70.8343C179.081 65.7825 181.582 61.1516 184.707 56.9417C187.832 52.5634 191.192 49.2797 194.786 47.0906ZM245.418 187.28V40.7757L194.786 72.3499V218.854L245.418 187.28ZM278 167.072L245.418 187.28L225.025 174.65L257.607 154.443L278 167.072ZM245.418 187.28L194.786 218.854L174.393 206.224L225.025 174.65L245.418 187.28ZM245.418 40.7757V187.28L225.025 174.65V28.1461L245.418 40.7757ZM259.716 14.2535C255.497 11.7275 250.731 12.1485 245.418 15.5164L194.786 47.0906C191.192 49.2797 187.832 52.5634 184.707 56.9417C181.582 61.1516 179.081 65.7825 177.206 70.8343C175.331 75.7178 174.393 80.4329 174.393 84.9795V231.484C174.393 238.219 176.425 242.85 180.488 245.376L160.095 232.747C156.032 230.221 154 225.59 154 218.854V72.3499C154 67.8032 154.938 63.0881 156.813 58.2047C158.688 53.1528 161.188 48.5219 164.314 44.312C167.439 39.9338 170.799 36.6501 174.393 34.4609L225.025 2.88678C230.494 -0.481131 235.26 -0.902121 239.323 1.62382L259.716 14.2535Z" fill="#E7F0F4"/>
<path d="M101.384 59.7201L45.2327 28.1461L22.6164 40.7757L45.2325 53.4929L78.7673 72.3498L101.384 59.7201Z" fill="#95EBE7"/>
<path d="M124 72.3498V97.609L101.384 110.239L78.7673 97.6325L78.7673 97.609L78.7673 72.3498L101.384 59.7201L124 72.3498Z" fill="#95EBE7"/>
<path d="M124 218.854C124 225.59 121.66 230.221 116.981 232.746L94.6247 245.376C90.1188 247.902 84.833 247.481 78.7673 244.113L22.6164 212.539C18.6304 210.35 14.9043 207.066 11.4382 202.688C7.97209 198.478 5.1992 193.847 3.11953 188.795C1.03987 183.912 0 179.197 0 174.65L3.05176e-05 149.391L22.6164 136.761L45.2327 149.391V174.65L78.7673 193.469V158.232L22.6164 126.657C18.6304 124.468 14.9043 121.184 11.4382 116.806C7.97209 112.596 5.1992 107.965 3.11953 102.914C1.6358 99.4294 0.681328 96.0311 0.256157 92.7184C0.0853882 91.3879 0 90.0712 0 88.7683V28.1225C0.00525665 21.3995 2.25826 16.7764 6.75894 14.2534L29.3753 1.62381C33.8813 -0.902115 39.1671 -0.48113 45.2327 2.88677V28.1461L22.6164 40.7757L45.2325 53.4929L45.2327 88.8308L45.2327 88.7683L112.302 129.941C115.768 134.319 118.541 139.034 120.62 144.086C122.873 149.138 124 153.853 124 158.231L124 218.854Z" fill="#95EBE7"/>
<path d="M45.2327 2.88677L101.384 34.4609V59.7201L45.2327 28.1461V2.88677Z" fill="#95EBE7"/>
<path d="M120.621 58.2046C122.874 63.2564 124 67.9715 124 72.3498L101.384 59.7201V34.4609C105.37 36.65 109.009 39.8495 112.302 44.0594C115.768 48.4376 118.541 53.1527 120.621 58.2046Z" fill="#95EBE7"/>
</svg>
