<svg width="124" height="247" viewBox="0 0 124 247" fill="none" xmlns="http://www.w3.org/2000/svg">
<path d="M40.7864 47.0906L91.4178 15.5164C96.7309 12.1485 101.419 11.7275 105.482 14.2535C109.701 16.7794 111.811 21.4103 111.811 28.1461V149.391C111.811 153.769 110.795 158.484 108.764 163.536C106.888 168.588 104.388 173.303 101.263 177.681C98.2936 181.891 95.012 185.091 91.4178 187.28L124 167.072V192.332L40.7864 244.113C35.317 247.481 30.5507 247.902 26.4877 245.376C22.4247 242.85 20.3932 238.219 20.3932 231.484V84.9795C20.3932 80.4329 21.3308 75.7178 23.206 70.8343C25.0813 65.7825 27.5816 61.1516 30.707 56.9417C33.8324 52.5634 37.1922 49.2797 40.7864 47.0906ZM91.4178 187.28V40.7757L40.7864 72.3499V218.854L91.4178 187.28ZM124 167.072L91.4178 187.28L71.0246 174.65L103.607 154.443L124 167.072ZM91.4178 187.28L40.7864 218.854L20.3932 206.224L71.0246 174.65L91.4178 187.28ZM91.4178 40.7757V187.28L71.0246 174.65V28.1461L91.4178 40.7757ZM105.716 14.2535C101.497 11.7275 96.7309 12.1485 91.4178 15.5164L40.7864 47.0906C37.1922 49.2797 33.8324 52.5634 30.707 56.9417C27.5816 61.1516 25.0813 65.7825 23.206 70.8343C21.3308 75.7178 20.3932 80.4329 20.3932 84.9795V231.484C20.3932 238.219 22.4247 242.85 26.4877 245.376L6.09452 232.747C2.03151 230.221 0 225.59 0 218.854V72.3499C0 67.8032 0.937619 63.0881 2.81286 58.2047C4.68809 53.1528 7.1884 48.5219 10.3138 44.3121C13.4392 39.9338 16.799 36.6501 20.3932 34.4609L71.0246 2.88678C76.494 -0.481131 81.2602 -0.902121 85.3232 1.62382L105.716 14.2535Z" fill="#E7F0F4"/>
</svg>
