<svg width="1635" height="1024" viewBox="0 0 1635 1024" fill="none" xmlns="http://www.w3.org/2000/svg">
<rect width="1635" height="1024" fill="#25243B"/>
<path d="M221.566 490.231C225.306 488.09 228.566 487.823 231.344 489.428C234.122 491.034 235.511 493.977 235.511 498.258V536.79C235.511 539.679 234.87 542.676 233.588 545.78C232.306 548.991 230.596 551.935 228.459 554.61C226.322 557.393 224.024 559.48 221.566 560.872L186.945 580.94C183.312 583.081 180.106 583.348 177.328 581.743C174.443 580.137 173 577.194 173 572.913V550.436L186.945 542.409V564.885L221.566 544.817V506.286L186.945 526.354C183.312 528.495 180.106 528.762 177.328 527.157C174.443 525.551 173 522.608 173 518.327V479.796C173 477.013 173.695 474.016 175.084 470.805C176.366 467.594 178.076 464.597 180.213 461.814C182.243 459.139 184.487 457.105 186.945 455.714L221.566 435.645C225.306 433.505 228.566 433.237 231.344 434.843C234.122 436.448 235.511 439.391 235.511 443.673V459.727L221.566 467.755V451.7L186.945 471.768V510.299L221.566 490.231ZM186.945 510.299V471.768L200.89 479.796V518.327L186.945 510.299ZM186.945 471.768L221.566 451.7L235.511 459.727L200.89 479.796L186.945 471.768ZM186.945 564.885V542.409L200.89 550.436V572.913L186.945 564.885ZM221.566 467.755L235.511 459.727L249.456 467.755L235.511 475.782L221.566 467.755ZM235.511 459.727V443.673C235.511 439.391 234.122 436.448 231.344 434.843L245.289 442.87C248.067 444.475 249.456 447.419 249.456 451.7V467.755L235.511 459.727ZM177.167 527.157C180.053 528.762 183.312 528.495 186.945 526.354L221.566 506.286L235.511 514.313L200.89 534.381C197.15 536.522 193.89 536.79 191.112 535.184L177.167 527.157ZM177.167 581.743C180.053 583.348 183.312 583.081 186.945 580.94L221.566 560.872C224.024 559.48 226.322 557.393 228.459 554.61C230.596 551.935 232.306 548.991 233.588 545.78C234.87 542.676 235.511 539.679 235.511 536.79V498.258C235.511 493.977 234.122 491.034 231.344 489.428L245.289 497.456C248.067 499.061 249.456 502.004 249.456 506.286V544.817C249.456 547.707 248.815 550.704 247.533 553.808C246.25 557.018 244.541 559.962 242.403 562.638C240.266 565.42 237.969 567.508 235.511 568.899L200.89 588.967C197.15 591.108 193.89 591.375 191.112 589.77L177.167 581.743Z" fill="#E7F0F4"/>
<path d="M291.207 463.741L325.828 443.673C329.461 441.532 332.667 441.264 335.445 442.87C338.33 444.475 339.773 447.419 339.773 451.7V528.762C339.773 531.545 339.078 534.542 337.689 537.753C336.407 540.964 334.697 543.961 332.56 546.744C330.53 549.419 328.286 551.453 325.828 552.844L348.108 540.001V556.055L291.207 588.967C287.467 591.108 284.207 591.375 281.429 589.77C278.651 588.165 277.262 585.221 277.262 580.94V487.823C277.262 484.933 277.903 481.936 279.185 478.832C280.467 475.621 282.177 472.678 284.314 470.002C286.451 467.219 288.749 465.132 291.207 463.741ZM325.828 552.844V459.727L291.207 479.796V572.913L325.828 552.844ZM348.108 540.001L325.828 552.844L311.883 544.817L334.163 531.973L348.108 540.001ZM325.828 552.844L291.207 572.913L277.262 564.885L311.883 544.817L325.828 552.844ZM325.828 459.727V552.844L311.883 544.817V451.7L325.828 459.727ZM335.606 442.87C332.72 441.264 329.461 441.532 325.828 443.673L291.207 463.741C288.749 465.132 286.451 467.219 284.314 470.002C282.177 472.678 280.467 475.621 279.185 478.832C277.903 481.936 277.262 484.933 277.262 487.823V580.94C277.262 585.221 278.651 588.165 281.429 589.77L267.484 581.743C264.706 580.137 263.317 577.194 263.317 572.913V479.796C263.317 476.906 263.958 473.909 265.24 470.805C266.523 467.594 268.232 464.651 270.369 461.975C272.507 459.192 274.804 457.105 277.262 455.714L311.883 435.645C315.623 433.505 318.882 433.237 321.661 434.843L335.606 442.87Z" fill="#E7F0F4"/>
<path d="M416.145 568.899L381.523 588.967C377.783 591.108 374.524 591.375 371.746 589.77C368.968 588.165 367.579 585.221 367.579 580.94V478.19L381.523 470.163V572.913L416.145 552.844V450.094L430.09 442.067V544.817C430.09 547.6 429.395 550.597 428.006 553.808C426.724 557.018 425.014 560.015 422.877 562.798C420.847 565.474 418.603 567.508 416.145 568.899ZM430.09 442.067L416.145 450.094L402.2 442.067L416.145 434.04L430.09 442.067ZM416.145 450.094V552.844L402.2 544.817V442.067L416.145 450.094ZM416.145 552.844L381.523 572.913L367.579 564.885L402.2 544.817L416.145 552.844ZM381.523 470.163L367.579 478.19L353.634 470.163L367.579 462.135L381.523 470.163ZM367.579 478.19V580.94C367.579 585.221 368.968 588.165 371.746 589.77L357.801 581.743C355.023 580.137 353.634 577.194 353.634 572.913V470.163L367.579 478.19Z" fill="#E7F0F4"/>
<path d="M471.84 463.741L506.462 443.673C510.095 441.532 513.301 441.264 516.079 442.87C518.964 444.475 520.407 447.419 520.407 451.7V554.45L506.462 562.477V530.368L471.84 550.436V582.545L457.896 590.573V487.823C457.896 484.933 458.537 481.936 459.819 478.832C461.101 475.621 462.811 472.678 464.948 470.002C467.085 467.219 469.383 465.132 471.84 463.741ZM506.462 514.313V459.727L471.84 479.796V534.381L506.462 514.313ZM506.462 530.368V562.477L492.517 554.45V522.34L506.462 530.368ZM506.462 459.727V514.313L492.517 506.286V451.7L506.462 459.727ZM506.462 514.313L471.84 534.381L457.896 526.354L492.517 506.286L506.462 514.313ZM516.239 442.87C513.354 441.264 510.095 441.532 506.462 443.673L471.84 463.741C469.383 465.132 467.085 467.219 464.948 470.002C462.811 472.678 461.101 475.621 459.819 478.832C458.537 481.936 457.896 484.933 457.896 487.823V590.573L443.951 582.545V479.796C443.951 476.906 444.592 473.909 445.874 470.805C447.156 467.594 448.866 464.651 451.003 461.975C453.14 459.192 455.438 457.105 457.896 455.714L492.517 435.645C496.257 433.505 499.516 433.237 502.294 434.843L516.239 442.87Z" fill="#E7F0F4"/>
<path d="M596.779 530.368L562.157 550.436V582.545L548.212 590.573V471.768L596.779 443.673C600.412 441.532 603.618 441.264 606.396 442.87C609.281 444.475 610.724 447.419 610.724 451.7V490.231C610.724 493.014 610.029 496.011 608.64 499.222C607.358 502.433 605.648 505.429 603.511 508.212C601.481 510.888 599.237 512.922 596.779 514.313C600.412 512.172 603.618 511.905 606.396 513.51C609.281 515.116 610.724 518.059 610.724 522.34V554.45L596.779 562.477V530.368ZM596.779 514.313V459.727L562.157 479.796V534.381L596.779 514.313ZM596.779 530.368V562.477L582.834 554.45V522.34L596.779 530.368ZM606.556 513.51C603.671 511.905 600.412 512.172 596.779 514.313L582.834 506.286C586.574 504.145 589.833 503.878 592.611 505.483L606.556 513.51ZM596.779 459.727V514.313L582.834 506.286V451.7L596.779 459.727ZM596.779 514.313L562.157 534.381L548.212 526.354L582.834 506.286L596.779 514.313ZM606.556 442.87C603.671 441.264 600.412 441.532 596.779 443.673L548.212 471.768L534.268 463.741L582.834 435.645C586.574 433.505 589.833 433.237 592.611 434.843L606.556 442.87ZM548.212 471.768V590.573L534.268 582.545V463.741L548.212 471.768Z" fill="#E7F0F4"/>
<path d="M638.529 494.245C638.529 491.355 639.171 488.358 640.453 485.254C641.735 482.043 643.445 479.1 645.582 476.424C647.719 473.641 650.016 471.554 652.474 470.163L701.041 442.067V458.122L652.474 486.217V521.538L701.041 493.442V509.497L652.474 537.592V572.913L701.041 544.817V560.872L652.474 588.967C648.734 591.108 645.475 591.375 642.697 589.77C639.918 588.165 638.529 585.221 638.529 580.94V494.245ZM701.041 544.817L652.474 572.913L638.529 564.885L687.096 536.79L701.041 544.817ZM701.041 493.442L652.474 521.538L638.529 513.51L687.096 485.415L701.041 493.442ZM701.041 442.067L652.474 470.163C650.016 471.554 647.719 473.641 645.582 476.424C643.445 479.1 641.735 482.043 640.453 485.254C639.171 488.358 638.529 491.355 638.529 494.245V580.94C638.529 585.221 639.918 588.165 642.697 589.77L628.752 581.743C625.974 580.137 624.585 577.194 624.585 572.913V486.217C624.585 483.328 625.226 480.331 626.508 477.227C627.79 474.016 629.5 471.073 631.637 468.397C633.774 465.614 636.072 463.527 638.529 462.135L687.096 434.04L701.041 442.067Z" fill="#E7F0F4"/>
<path d="M845.067 439.102L781.04 403.096L755.251 417.498L781.039 432.001L819.278 453.504L845.067 439.102Z" fill="#FABDFF"/>
<path d="M870.856 453.504V482.308L845.067 496.71L819.278 482.335L819.278 482.308L819.278 453.504L845.067 439.102L870.856 453.504Z" fill="#FABDFF"/>
<path d="M870.856 620.569C870.856 628.251 868.188 633.531 862.852 636.412L837.36 650.814C832.222 653.695 826.195 653.214 819.278 649.374L755.251 613.368C750.705 610.872 746.457 607.127 742.504 602.135C738.552 597.334 735.39 592.053 733.019 586.292C730.647 580.723 729.462 575.347 729.462 570.162L729.462 541.357L755.251 526.955L781.04 541.357V570.162L819.278 591.622V551.439L755.251 515.433C750.705 512.937 746.457 509.192 742.504 504.2C738.552 499.399 735.39 494.118 733.019 488.357C731.327 484.384 730.239 480.509 729.754 476.731C729.559 475.214 729.462 473.712 729.462 472.227V403.069C729.468 395.403 732.037 390.131 737.169 387.254L762.958 372.852C768.096 369.971 774.123 370.451 781.04 374.292V403.096L755.251 417.498L781.039 432.001L781.04 472.298L781.04 472.227L857.517 519.178C861.469 524.171 864.631 529.548 867.002 535.308C869.571 541.069 870.856 546.446 870.856 551.439L870.856 620.569Z" fill="#FABDFF"/>
<path d="M781.04 374.292L845.067 410.297V439.102L781.04 403.096V374.292Z" fill="#FABDFF"/>
<path d="M867.002 437.373C869.571 443.134 870.856 448.511 870.856 453.504L845.067 439.102V410.297C849.612 412.794 853.762 416.442 857.517 421.243C861.469 426.236 864.631 431.613 867.002 437.373Z" fill="#FABDFF"/>
<path fill-rule="evenodd" clip-rule="evenodd" d="M986.052 403.196L951.572 424.7C947.474 427.196 943.643 430.941 940.079 435.933C936.515 440.734 933.664 446.015 931.526 451.776C929.387 457.345 928.318 462.721 928.318 467.906V606.167V634.972C928.318 642.653 930.635 647.934 935.268 650.814C939.901 653.695 945.335 653.214 951.572 649.374L1046.46 590.325V561.521L1030.99 551.941C1032.04 548.24 1032.56 544.712 1032.56 541.357V403.096C1032.56 395.415 1030.15 390.134 1025.34 387.254C1023.37 386.027 1021.27 385.41 1019.04 385.402C1018.98 385.402 1018.91 385.402 1018.85 385.403C1015.9 385.437 1012.73 386.529 1009.33 388.681C1009.32 388.686 1009.31 388.69 1009.31 388.694L986.132 403.146L986.052 403.096V403.196ZM986.052 432.001L951.572 453.504V591.665L986.052 570.162V432.001Z" fill="#95EBE7"/>
<path d="M935.268 650.814C930.635 647.934 928.318 642.653 928.318 634.972V606.167V467.906C928.318 462.721 929.387 457.345 931.526 451.776C933.664 446.015 936.515 440.734 940.079 435.933C943.643 430.941 947.474 427.196 951.572 424.7L986.052 403.196V403.096L986.132 403.146L1009.31 388.694L1009.33 388.681C1012.73 386.529 1015.9 385.437 1018.85 385.403C1018.91 385.402 1018.98 385.402 1019.04 385.402C1021.34 385.394 1023.54 386.012 1025.61 387.254L1002.36 372.852C997.723 369.971 992.289 370.451 986.052 374.292L928.318 410.297C924.22 412.794 920.389 416.538 916.825 421.531C913.261 426.332 910.41 431.613 908.272 437.374C906.133 442.942 905.064 448.319 905.064 453.504V620.57C905.064 628.251 907.381 633.531 912.014 636.412L935.268 650.814Z" fill="#95EBE7"/>
<path d="M1121.52 464.045C1125.26 461.904 1128.52 461.637 1131.3 463.242C1134.08 464.848 1135.47 467.791 1135.47 472.072V552.346L1156.31 540.305V443.977L1170.25 435.949V548.332L1135.47 568.4C1131.83 570.541 1128.58 570.808 1125.69 569.203C1122.91 567.597 1121.52 564.654 1121.52 560.373V480.1L1100.85 492.141V588.469L1086.9 596.496V484.113L1121.52 464.045ZM1170.25 435.949L1156.31 443.977L1142.36 435.949L1156.31 427.922L1170.25 435.949ZM1156.31 443.977V540.305L1142.36 532.277V435.949L1156.31 443.977ZM1156.31 540.305L1135.47 552.346L1121.52 544.318L1142.36 532.277L1156.31 540.305ZM1121.52 480.1V560.373C1121.52 564.654 1122.91 567.597 1125.69 569.203L1111.91 561.176C1109.13 559.57 1107.74 556.627 1107.74 552.346V472.072L1121.52 480.1ZM1131.3 463.242C1128.52 461.637 1125.26 461.904 1121.52 464.045L1086.9 484.113L1072.96 476.086L1107.74 456.018C1111.37 453.877 1114.58 453.609 1117.36 455.215L1131.3 463.242ZM1086.9 484.113V596.496L1072.96 588.469V476.086L1086.9 484.113Z" fill="#E7F0F4"/>
<path d="M1198.04 500.168C1198.04 497.278 1198.68 494.281 1199.96 491.177C1201.24 487.966 1202.95 485.023 1205.09 482.347C1207.23 479.564 1209.52 477.477 1211.98 476.086L1260.55 447.99V464.045L1211.98 492.141V527.461L1260.55 499.365V515.42L1211.98 543.515V578.836L1260.55 550.74V566.795L1211.98 594.89C1208.24 597.031 1204.98 597.299 1202.2 595.693C1199.43 594.088 1198.04 591.144 1198.04 586.863V500.168ZM1260.55 550.74L1211.98 578.836L1198.04 570.808L1246.6 542.713L1260.55 550.74ZM1260.55 499.365L1211.98 527.461L1198.04 519.433L1246.6 491.338L1260.55 499.365ZM1260.55 447.99L1211.98 476.086C1209.52 477.477 1207.23 479.564 1205.09 482.347C1202.95 485.023 1201.24 487.966 1199.96 491.177C1198.68 494.281 1198.04 497.278 1198.04 500.168V586.863C1198.04 591.144 1199.43 594.088 1202.2 595.693L1188.26 587.666C1185.48 586.06 1184.09 583.117 1184.09 578.836V492.141C1184.09 489.251 1184.73 486.254 1186.02 483.15C1187.3 479.939 1189.01 476.996 1191.14 474.32C1193.28 471.537 1195.58 469.45 1198.04 468.059L1246.6 439.963L1260.55 447.99Z" fill="#E7F0F4"/>
<path d="M1316.08 593.285C1312.45 595.426 1309.24 595.693 1306.47 594.088C1303.69 592.482 1302.3 589.539 1302.3 585.258L1322.98 573.217V464.045L1336.92 456.018V565.189L1357.76 553.148V443.977L1371.7 435.949V529.066C1371.7 531.849 1371.01 534.846 1369.62 538.057C1368.34 541.268 1366.63 544.265 1364.49 547.047C1362.46 549.723 1360.21 551.757 1357.76 553.148C1357.76 555.931 1357.12 558.928 1355.83 562.139C1354.55 565.35 1352.84 568.347 1350.7 571.129C1348.57 573.805 1346.27 575.839 1343.81 577.23L1316.08 593.285ZM1302.3 585.258C1298.56 587.398 1295.3 587.666 1292.52 586.06C1289.74 584.455 1288.35 581.511 1288.35 577.23V484.113L1302.3 476.086V585.258ZM1371.7 435.949L1357.76 443.977L1343.81 435.949L1357.76 427.922L1371.7 435.949ZM1357.76 443.977V553.148L1343.81 545.121V435.949L1357.76 443.977ZM1357.76 553.148L1336.92 565.189L1322.98 557.162L1343.81 545.121L1357.76 553.148ZM1322.98 573.217L1302.3 585.258L1288.35 577.23L1309.19 565.189L1322.98 573.217ZM1302.3 585.258C1302.3 589.539 1303.69 592.482 1306.47 594.088L1292.52 586.06C1289.74 584.455 1288.35 581.511 1288.35 577.23L1302.3 585.258ZM1336.92 456.018L1322.98 464.045L1309.19 456.018L1322.98 447.99L1336.92 456.018ZM1322.98 464.045V573.217L1309.19 565.189V456.018L1322.98 464.045ZM1302.3 476.086L1288.35 484.113L1274.41 476.086L1288.35 468.059L1302.3 476.086ZM1288.35 484.113V577.23C1288.35 581.511 1289.74 584.455 1292.52 586.06L1278.58 578.033C1275.8 576.428 1274.41 573.484 1274.41 569.203V476.086L1288.35 484.113Z" fill="#E7F0F4"/>
<path d="M1413.43 540.305C1409.69 542.445 1406.43 542.713 1403.66 541.107C1400.88 539.502 1399.49 536.558 1399.49 532.277V493.746C1399.49 490.856 1400.13 487.859 1401.41 484.755C1402.69 481.544 1404.4 478.601 1406.54 475.925C1408.68 473.143 1410.98 471.055 1413.43 469.664L1448.06 449.596C1451.69 447.455 1454.89 447.188 1457.67 448.793C1460.56 450.398 1462 453.342 1462 457.623V480.1L1448.06 488.127V465.65L1413.43 485.719V524.25L1448.06 504.182C1451.69 502.041 1454.89 501.773 1457.67 503.379C1460.56 504.984 1462 507.928 1462 512.209V550.74C1462 553.523 1461.31 556.52 1459.92 559.731C1458.63 562.942 1456.92 565.938 1454.79 568.721C1452.76 571.397 1450.51 573.431 1448.06 574.822L1413.43 594.89C1409.69 597.031 1406.43 597.299 1403.66 595.693C1400.88 594.088 1399.49 591.144 1399.49 586.863V570.808L1413.43 562.781V578.836L1448.06 558.767V520.236L1413.43 540.305ZM1448.06 520.236V558.767L1434.11 550.74V512.209L1448.06 520.236ZM1448.06 558.767L1413.43 578.836L1399.49 570.808L1434.11 550.74L1448.06 558.767ZM1448.06 465.65V488.127L1434.11 480.1V457.623L1448.06 465.65ZM1413.43 562.781L1399.49 570.808L1385.54 562.781L1399.49 554.754L1413.43 562.781ZM1399.49 570.808V586.863C1399.49 591.144 1400.88 594.088 1403.66 595.693L1389.71 587.666C1386.93 586.06 1385.54 583.117 1385.54 578.836V562.781L1399.49 570.808ZM1457.83 503.379C1454.95 501.773 1451.69 502.041 1448.06 504.182L1413.43 524.25L1399.49 516.223L1434.11 496.154C1437.85 494.014 1441.11 493.746 1443.89 495.351L1457.83 503.379ZM1457.83 448.793C1454.95 447.188 1451.69 447.455 1448.06 449.596L1413.43 469.664C1410.98 471.055 1408.68 473.143 1406.54 475.925C1404.4 478.601 1402.69 481.544 1401.41 484.755C1400.13 487.859 1399.49 490.856 1399.49 493.746V532.277C1399.49 536.558 1400.88 539.502 1403.66 541.107L1389.71 533.08C1386.93 531.474 1385.54 528.531 1385.54 524.25V485.719C1385.54 482.829 1386.19 479.832 1387.47 476.728C1388.75 473.517 1390.46 470.574 1392.6 467.898C1394.73 465.115 1397.03 463.028 1399.49 461.637L1434.11 441.568C1437.85 439.428 1441.11 439.16 1443.89 440.766L1457.83 448.793Z" fill="#E7F0F4"/>
</svg>
