<svg width="1440" height="1024" viewBox="0 0 1440 1024" fill="none" xmlns="http://www.w3.org/2000/svg">
<rect width="1440" height="1024" fill="#25243B"/>
<path d="M123.566 490.231C127.306 488.09 130.566 487.823 133.344 489.428C136.122 491.034 137.511 493.977 137.511 498.258V536.79C137.511 539.679 136.87 542.676 135.588 545.78C134.306 548.991 132.596 551.935 130.459 554.61C128.322 557.393 126.024 559.48 123.566 560.872L88.9448 580.94C85.3117 583.081 82.106 583.348 79.3277 581.743C76.4426 580.137 75 577.194 75 572.913V550.436L88.9448 542.409V564.885L123.566 544.817V506.286L88.9448 526.354C85.3117 528.495 82.106 528.762 79.3277 527.157C76.4426 525.551 75 522.608 75 518.327V479.796C75 477.013 75.6946 474.016 77.0837 470.805C78.366 467.594 80.0757 464.597 82.2128 461.814C84.2431 459.139 86.4871 457.105 88.9448 455.714L123.566 435.645C127.306 433.505 130.566 433.237 133.344 434.843C136.122 436.448 137.511 439.391 137.511 443.673V459.727L123.566 467.755V451.7L88.9448 471.768V510.299L123.566 490.231ZM88.9448 510.299V471.768L102.89 479.796V518.327L88.9448 510.299ZM88.9448 471.768L123.566 451.7L137.511 459.727L102.89 479.796L88.9448 471.768ZM88.9448 564.885V542.409L102.89 550.436V572.913L88.9448 564.885ZM123.566 467.755L137.511 459.727L151.456 467.755L137.511 475.782L123.566 467.755ZM137.511 459.727V443.673C137.511 439.391 136.122 436.448 133.344 434.843L147.289 442.87C150.067 444.475 151.456 447.419 151.456 451.7V467.755L137.511 459.727ZM79.1674 527.157C82.0526 528.762 85.3117 528.495 88.9448 526.354L123.566 506.286L137.511 514.313L102.89 534.381C99.1496 536.522 95.8905 536.79 93.1122 535.184L79.1674 527.157ZM79.1674 581.743C82.0526 583.348 85.3117 583.081 88.9448 580.94L123.566 560.872C126.024 559.48 128.322 557.393 130.459 554.61C132.596 551.935 134.306 548.991 135.588 545.78C136.87 542.676 137.511 539.679 137.511 536.79V498.258C137.511 493.977 136.122 491.034 133.344 489.428L147.289 497.456C150.067 499.061 151.456 502.004 151.456 506.286V544.817C151.456 547.707 150.815 550.704 149.533 553.808C148.25 557.018 146.541 559.962 144.403 562.638C142.266 565.42 139.969 567.508 137.511 568.899L102.89 588.967C99.1496 591.108 95.8905 591.375 93.1122 589.77L79.1674 581.743Z" fill="#E7F0F4"/>
<path d="M193.207 463.741L227.828 443.673C231.461 441.532 234.667 441.264 237.445 442.87C240.33 444.475 241.773 447.419 241.773 451.7V528.762C241.773 531.545 241.078 534.542 239.689 537.753C238.407 540.964 236.697 543.961 234.56 546.744C232.53 549.419 230.286 551.453 227.828 552.844L250.108 540.001V556.055L193.207 588.967C189.467 591.108 186.207 591.375 183.429 589.77C180.651 588.165 179.262 585.221 179.262 580.94V487.823C179.262 484.933 179.903 481.936 181.185 478.832C182.467 475.621 184.177 472.678 186.314 470.002C188.451 467.219 190.749 465.132 193.207 463.741ZM227.828 552.844V459.727L193.207 479.796V572.913L227.828 552.844ZM250.108 540.001L227.828 552.844L213.883 544.817L236.163 531.973L250.108 540.001ZM227.828 552.844L193.207 572.913L179.262 564.885L213.883 544.817L227.828 552.844ZM227.828 459.727V552.844L213.883 544.817V451.7L227.828 459.727ZM237.606 442.87C234.72 441.264 231.461 441.532 227.828 443.673L193.207 463.741C190.749 465.132 188.451 467.219 186.314 470.002C184.177 472.678 182.467 475.621 181.185 478.832C179.903 481.936 179.262 484.933 179.262 487.823V580.94C179.262 585.221 180.651 588.165 183.429 589.77L169.484 581.743C166.706 580.137 165.317 577.194 165.317 572.913V479.796C165.317 476.906 165.958 473.909 167.24 470.805C168.523 467.594 170.232 464.651 172.369 461.975C174.507 459.192 176.804 457.105 179.262 455.714L213.883 435.645C217.623 433.505 220.882 433.237 223.661 434.843L237.606 442.87Z" fill="#E7F0F4"/>
<path d="M318.145 568.899L283.523 588.967C279.783 591.108 276.524 591.375 273.746 589.77C270.968 588.165 269.579 585.221 269.579 580.94V478.19L283.523 470.163V572.913L318.145 552.844V450.094L332.09 442.067V544.817C332.09 547.6 331.395 550.597 330.006 553.808C328.724 557.018 327.014 560.015 324.877 562.798C322.847 565.474 320.603 567.508 318.145 568.899ZM332.09 442.067L318.145 450.094L304.2 442.067L318.145 434.04L332.09 442.067ZM318.145 450.094V552.844L304.2 544.817V442.067L318.145 450.094ZM318.145 552.844L283.523 572.913L269.579 564.885L304.2 544.817L318.145 552.844ZM283.523 470.163L269.579 478.19L255.634 470.163L269.579 462.135L283.523 470.163ZM269.579 478.19V580.94C269.579 585.221 270.968 588.165 273.746 589.77L259.801 581.743C257.023 580.137 255.634 577.194 255.634 572.913V470.163L269.579 478.19Z" fill="#E7F0F4"/>
<path d="M373.84 463.741L408.462 443.673C412.095 441.532 415.301 441.264 418.079 442.87C420.964 444.475 422.407 447.419 422.407 451.7V554.45L408.462 562.477V530.368L373.84 550.436V582.545L359.896 590.573V487.823C359.896 484.933 360.537 481.936 361.819 478.832C363.101 475.621 364.811 472.678 366.948 470.002C369.085 467.219 371.383 465.132 373.84 463.741ZM408.462 514.313V459.727L373.84 479.796V534.381L408.462 514.313ZM408.462 530.368V562.477L394.517 554.45V522.34L408.462 530.368ZM408.462 459.727V514.313L394.517 506.286V451.7L408.462 459.727ZM408.462 514.313L373.84 534.381L359.896 526.354L394.517 506.286L408.462 514.313ZM418.239 442.87C415.354 441.264 412.095 441.532 408.462 443.673L373.84 463.741C371.383 465.132 369.085 467.219 366.948 470.002C364.811 472.678 363.101 475.621 361.819 478.832C360.537 481.936 359.896 484.933 359.896 487.823V590.573L345.951 582.545V479.796C345.951 476.906 346.592 473.909 347.874 470.805C349.156 467.594 350.866 464.651 353.003 461.975C355.14 459.192 357.438 457.105 359.896 455.714L394.517 435.645C398.257 433.505 401.516 433.237 404.294 434.843L418.239 442.87Z" fill="#E7F0F4"/>
<path d="M498.779 530.368L464.157 550.436V582.545L450.212 590.573V471.768L498.779 443.673C502.412 441.532 505.618 441.264 508.396 442.87C511.281 444.475 512.724 447.419 512.724 451.7V490.231C512.724 493.014 512.029 496.011 510.64 499.222C509.358 502.433 507.648 505.429 505.511 508.212C503.481 510.888 501.237 512.922 498.779 514.313C502.412 512.172 505.618 511.905 508.396 513.51C511.281 515.116 512.724 518.059 512.724 522.34V554.45L498.779 562.477V530.368ZM498.779 514.313V459.727L464.157 479.796V534.381L498.779 514.313ZM498.779 530.368V562.477L484.834 554.45V522.34L498.779 530.368ZM508.556 513.51C505.671 511.905 502.412 512.172 498.779 514.313L484.834 506.286C488.574 504.145 491.833 503.878 494.611 505.483L508.556 513.51ZM498.779 459.727V514.313L484.834 506.286V451.7L498.779 459.727ZM498.779 514.313L464.157 534.381L450.212 526.354L484.834 506.286L498.779 514.313ZM508.556 442.87C505.671 441.264 502.412 441.532 498.779 443.673L450.212 471.768L436.268 463.741L484.834 435.645C488.574 433.505 491.833 433.237 494.611 434.843L508.556 442.87ZM450.212 471.768V590.573L436.268 582.545V463.741L450.212 471.768Z" fill="#E7F0F4"/>
<path d="M540.529 494.245C540.529 491.355 541.171 488.358 542.453 485.254C543.735 482.043 545.445 479.1 547.582 476.424C549.719 473.641 552.016 471.554 554.474 470.163L603.041 442.067V458.122L554.474 486.217V521.538L603.041 493.442V509.497L554.474 537.592V572.913L603.041 544.817V560.872L554.474 588.967C550.734 591.108 547.475 591.375 544.697 589.77C541.918 588.165 540.529 585.221 540.529 580.94V494.245ZM603.041 544.817L554.474 572.913L540.529 564.885L589.096 536.79L603.041 544.817ZM603.041 493.442L554.474 521.538L540.529 513.51L589.096 485.415L603.041 493.442ZM603.041 442.067L554.474 470.163C552.016 471.554 549.719 473.641 547.582 476.424C545.445 479.1 543.735 482.043 542.453 485.254C541.171 488.358 540.529 491.355 540.529 494.245V580.94C540.529 585.221 541.918 588.165 544.697 589.77L530.752 581.743C527.974 580.137 526.585 577.194 526.585 572.913V486.217C526.585 483.328 527.226 480.331 528.508 477.227C529.79 474.016 531.5 471.073 533.637 468.397C535.774 465.614 538.072 463.527 540.529 462.135L589.096 434.04L603.041 442.067Z" fill="#E7F0F4"/>
<path d="M747.067 439.102L683.04 403.096L657.251 417.498L683.039 432.001L721.278 453.504L747.067 439.102Z" fill="#FABDFF"/>
<path d="M772.856 453.504V482.308L747.067 496.71L721.278 482.335L721.278 482.308L721.278 453.504L747.067 439.102L772.856 453.504Z" fill="#FABDFF"/>
<path d="M772.856 620.569C772.856 628.251 770.188 633.531 764.852 636.412L739.36 650.814C734.222 653.695 728.195 653.214 721.278 649.374L657.251 613.368C652.705 610.872 648.457 607.127 644.504 602.135C640.552 597.334 637.39 592.053 635.019 586.292C632.647 580.723 631.462 575.347 631.462 570.162L631.462 541.357L657.251 526.955L683.04 541.357V570.162L721.278 591.622V551.439L657.251 515.433C652.705 512.937 648.457 509.192 644.504 504.2C640.552 499.399 637.39 494.118 635.019 488.357C633.327 484.384 632.239 480.509 631.754 476.731C631.559 475.214 631.462 473.712 631.462 472.227V403.069C631.468 395.403 634.037 390.131 639.169 387.254L664.958 372.852C670.096 369.971 676.123 370.451 683.04 374.292V403.096L657.251 417.498L683.039 432.001L683.04 472.298L683.04 472.227L759.517 519.178C763.469 524.171 766.631 529.548 769.002 535.308C771.571 541.069 772.856 546.446 772.856 551.439L772.856 620.569Z" fill="#FABDFF"/>
<path d="M683.04 374.292L747.067 410.297V439.102L683.04 403.096V374.292Z" fill="#FABDFF"/>
<path d="M769.002 437.373C771.571 443.134 772.856 448.511 772.856 453.504L747.067 439.102V410.297C751.612 412.794 755.762 416.442 759.517 421.243C763.469 426.236 766.631 431.613 769.002 437.373Z" fill="#FABDFF"/>
<path fill-rule="evenodd" clip-rule="evenodd" d="M888.052 403.196L853.572 424.7C849.474 427.196 845.643 430.941 842.079 435.933C838.515 440.734 835.664 446.015 833.526 451.776C831.387 457.345 830.318 462.721 830.318 467.906V606.167V634.972C830.318 642.653 832.635 647.934 837.268 650.814C841.901 653.695 847.335 653.214 853.572 649.374L948.458 590.325V561.521L932.991 551.941C934.037 548.24 934.56 544.712 934.56 541.357V403.096C934.56 395.415 932.154 390.134 927.343 387.254C925.37 386.027 923.268 385.41 921.037 385.402C920.976 385.402 920.914 385.402 920.853 385.403C917.902 385.437 914.726 386.529 911.326 388.681C911.319 388.686 911.313 388.69 911.306 388.694L888.132 403.146L888.052 403.096V403.196ZM888.052 432.001L853.572 453.504V591.665L888.052 570.162V432.001Z" fill="#95EBE7"/>
<path d="M837.268 650.814C832.635 647.934 830.318 642.653 830.318 634.972V606.167V467.906C830.318 462.721 831.387 457.345 833.526 451.776C835.664 446.015 838.515 440.734 842.079 435.933C845.643 430.941 849.474 427.196 853.572 424.7L888.052 403.196V403.096L888.132 403.146L911.306 388.694L911.326 388.681C914.726 386.529 917.902 385.437 920.853 385.403C920.914 385.402 920.976 385.402 921.037 385.402C923.344 385.394 925.535 386.012 927.61 387.254L904.356 372.852C899.723 369.971 894.289 370.451 888.052 374.292L830.318 410.297C826.22 412.794 822.389 416.538 818.825 421.531C815.261 426.332 812.41 431.613 810.272 437.374C808.133 442.942 807.064 448.319 807.064 453.504V620.57C807.064 628.251 809.381 633.531 814.014 636.412L837.268 650.814Z" fill="#95EBE7"/>
<path d="M1023.52 464.045C1027.26 461.904 1030.52 461.637 1033.3 463.242C1036.08 464.848 1037.47 467.791 1037.47 472.072V552.346L1058.31 540.305V443.977L1072.25 435.949V548.332L1037.47 568.4C1033.83 570.541 1030.58 570.808 1027.69 569.203C1024.91 567.597 1023.52 564.654 1023.52 560.373V480.1L1002.85 492.141V588.469L988.901 596.496V484.113L1023.52 464.045ZM1072.25 435.949L1058.31 443.977L1044.36 435.949L1058.31 427.922L1072.25 435.949ZM1058.31 443.977V540.305L1044.36 532.277V435.949L1058.31 443.977ZM1058.31 540.305L1037.47 552.346L1023.52 544.318L1044.36 532.277L1058.31 540.305ZM1023.52 480.1V560.373C1023.52 564.654 1024.91 567.597 1027.69 569.203L1013.91 561.176C1011.13 559.57 1009.74 556.627 1009.74 552.346V472.072L1023.52 480.1ZM1033.3 463.242C1030.52 461.637 1027.26 461.904 1023.52 464.045L988.901 484.113L974.957 476.086L1009.74 456.018C1013.37 453.877 1016.58 453.609 1019.36 455.215L1033.3 463.242ZM988.901 484.113V596.496L974.957 588.469V476.086L988.901 484.113Z" fill="#E7F0F4"/>
<path d="M1100.04 500.168C1100.04 497.278 1100.68 494.281 1101.96 491.177C1103.24 487.966 1104.95 485.023 1107.09 482.347C1109.23 479.564 1111.52 477.477 1113.98 476.086L1162.55 447.99V464.045L1113.98 492.141V527.461L1162.55 499.365V515.42L1113.98 543.515V578.836L1162.55 550.74V566.795L1113.98 594.89C1110.24 597.031 1106.98 597.299 1104.2 595.693C1101.43 594.088 1100.04 591.144 1100.04 586.863V500.168ZM1162.55 550.74L1113.98 578.836L1100.04 570.808L1148.6 542.713L1162.55 550.74ZM1162.55 499.365L1113.98 527.461L1100.04 519.433L1148.6 491.338L1162.55 499.365ZM1162.55 447.99L1113.98 476.086C1111.52 477.477 1109.23 479.564 1107.09 482.347C1104.95 485.023 1103.24 487.966 1101.96 491.177C1100.68 494.281 1100.04 497.278 1100.04 500.168V586.863C1100.04 591.144 1101.43 594.088 1104.2 595.693L1090.26 587.666C1087.48 586.06 1086.09 583.117 1086.09 578.836V492.141C1086.09 489.251 1086.73 486.254 1088.02 483.15C1089.3 479.939 1091.01 476.996 1093.14 474.32C1095.28 471.537 1097.58 469.45 1100.04 468.059L1148.6 439.963L1162.55 447.99Z" fill="#E7F0F4"/>
<path d="M1218.08 593.285C1214.45 595.426 1211.24 595.693 1208.47 594.088C1205.69 592.482 1204.3 589.539 1204.3 585.258L1224.98 573.217V464.045L1238.92 456.018V565.189L1259.76 553.148V443.977L1273.7 435.949V529.066C1273.7 531.849 1273.01 534.846 1271.62 538.057C1270.34 541.268 1268.63 544.265 1266.49 547.047C1264.46 549.723 1262.21 551.757 1259.76 553.148C1259.76 555.931 1259.12 558.928 1257.83 562.139C1256.55 565.35 1254.84 568.347 1252.7 571.129C1250.57 573.805 1248.27 575.839 1245.81 577.23L1218.08 593.285ZM1204.3 585.258C1200.56 587.398 1197.3 587.666 1194.52 586.06C1191.74 584.455 1190.35 581.511 1190.35 577.23V484.113L1204.3 476.086V585.258ZM1273.7 435.949L1259.76 443.977L1245.81 435.949L1259.76 427.922L1273.7 435.949ZM1259.76 443.977V553.148L1245.81 545.121V435.949L1259.76 443.977ZM1259.76 553.148L1238.92 565.189L1224.98 557.162L1245.81 545.121L1259.76 553.148ZM1224.98 573.217L1204.3 585.258L1190.35 577.23L1211.19 565.189L1224.98 573.217ZM1204.3 585.258C1204.3 589.539 1205.69 592.482 1208.47 594.088L1194.52 586.06C1191.74 584.455 1190.35 581.511 1190.35 577.23L1204.3 585.258ZM1238.92 456.018L1224.98 464.045L1211.19 456.018L1224.98 447.99L1238.92 456.018ZM1224.98 464.045V573.217L1211.19 565.189V456.018L1224.98 464.045ZM1204.3 476.086L1190.35 484.113L1176.41 476.086L1190.35 468.059L1204.3 476.086ZM1190.35 484.113V577.23C1190.35 581.511 1191.74 584.455 1194.52 586.06L1180.58 578.033C1177.8 576.428 1176.41 573.484 1176.41 569.203V476.086L1190.35 484.113Z" fill="#E7F0F4"/>
<path d="M1315.43 540.305C1311.69 542.445 1308.43 542.713 1305.66 541.107C1302.88 539.502 1301.49 536.558 1301.49 532.277V493.746C1301.49 490.856 1302.13 487.859 1303.41 484.755C1304.69 481.544 1306.4 478.601 1308.54 475.925C1310.68 473.143 1312.98 471.055 1315.43 469.664L1350.06 449.596C1353.69 447.455 1356.89 447.188 1359.67 448.793C1362.56 450.398 1364 453.342 1364 457.623V480.1L1350.06 488.127V465.65L1315.43 485.719V524.25L1350.06 504.182C1353.69 502.041 1356.89 501.773 1359.67 503.379C1362.56 504.984 1364 507.928 1364 512.209V550.74C1364 553.523 1363.31 556.52 1361.92 559.731C1360.63 562.942 1358.92 565.938 1356.79 568.721C1354.76 571.397 1352.51 573.431 1350.06 574.822L1315.43 594.89C1311.69 597.031 1308.43 597.299 1305.66 595.693C1302.88 594.088 1301.49 591.144 1301.49 586.863V570.808L1315.43 562.781V578.836L1350.06 558.767V520.236L1315.43 540.305ZM1350.06 520.236V558.767L1336.11 550.74V512.209L1350.06 520.236ZM1350.06 558.767L1315.43 578.836L1301.49 570.808L1336.11 550.74L1350.06 558.767ZM1350.06 465.65V488.127L1336.11 480.1V457.623L1350.06 465.65ZM1315.43 562.781L1301.49 570.808L1287.54 562.781L1301.49 554.754L1315.43 562.781ZM1301.49 570.808V586.863C1301.49 591.144 1302.88 594.088 1305.66 595.693L1291.71 587.666C1288.93 586.06 1287.54 583.117 1287.54 578.836V562.781L1301.49 570.808ZM1359.83 503.379C1356.95 501.773 1353.69 502.041 1350.06 504.182L1315.43 524.25L1301.49 516.223L1336.11 496.154C1339.85 494.014 1343.11 493.746 1345.89 495.351L1359.83 503.379ZM1359.83 448.793C1356.95 447.188 1353.69 447.455 1350.06 449.596L1315.43 469.664C1312.98 471.055 1310.68 473.143 1308.54 475.925C1306.4 478.601 1304.69 481.544 1303.41 484.755C1302.13 487.859 1301.49 490.856 1301.49 493.746V532.277C1301.49 536.558 1302.88 539.502 1305.66 541.107L1291.71 533.08C1288.93 531.474 1287.54 528.531 1287.54 524.25V485.719C1287.54 482.829 1288.19 479.832 1289.47 476.728C1290.75 473.517 1292.46 470.574 1294.6 467.898C1296.73 465.115 1299.03 463.028 1301.49 461.637L1336.11 441.568C1339.85 439.428 1343.11 439.16 1345.89 440.766L1359.83 448.793Z" fill="#E7F0F4"/>
</svg>
