<svg width="1314" height="287" viewBox="0 0 1314 287" fill="none" xmlns="http://www.w3.org/2000/svg">
<path d="M49.4862 121.489C53.297 119.308 56.6178 119.035 59.4487 120.671C62.2796 122.307 63.695 125.306 63.695 129.668V168.929C63.695 171.874 63.0418 174.928 61.7352 178.09C60.4286 181.362 58.6865 184.361 56.5089 187.088C54.3313 189.923 51.9904 192.05 49.4862 193.467L14.2089 213.916C10.507 216.097 7.24055 216.37 4.40966 214.734C1.46989 213.098 0 210.099 0 205.736V182.834L14.2089 174.655V197.557L49.4862 177.109V137.848L14.2089 158.296C10.507 160.477 7.24055 160.75 4.40966 159.114C1.46989 157.478 0 154.479 0 150.117V110.856C0 108.02 0.707723 104.967 2.12317 101.695C3.42973 98.4233 5.17182 95.3697 7.34943 92.5342C9.41815 89.8077 11.7046 87.7357 14.2089 86.3179L49.4862 65.8696C53.297 63.6884 56.6178 63.4158 59.4487 65.0516C62.2796 66.6875 63.695 69.6866 63.695 74.0489V90.4076L49.4862 98.5869V82.2283L14.2089 102.677V141.937L49.4862 121.489ZM14.2089 141.937V102.677L28.4178 110.856V150.117L14.2089 141.937ZM14.2089 102.677L49.4862 82.2283L63.695 90.4076L28.4178 110.856L14.2089 102.677ZM14.2089 197.557V174.655L28.4178 182.834V205.736L14.2089 197.557ZM49.4862 98.5869L63.695 90.4076L77.9039 98.5869L63.695 106.766L49.4862 98.5869ZM63.695 90.4076V74.0489C63.695 69.6866 62.2796 66.6875 59.4487 65.0516L73.6576 73.231C76.4885 74.8668 77.9039 77.8659 77.9039 82.2283V98.5869L63.695 90.4076ZM4.24634 159.114C7.18611 160.75 10.507 160.477 14.2089 158.296L49.4862 137.848L63.695 146.027L28.4178 166.476C24.607 168.657 21.2861 168.929 18.4552 167.293L4.24634 159.114ZM4.24634 214.734C7.18611 216.37 10.507 216.097 14.2089 213.916L49.4862 193.467C51.9904 192.05 54.3313 189.923 56.5089 187.088C58.6865 184.361 60.4286 181.362 61.7352 178.09C63.0418 174.928 63.695 171.874 63.695 168.929V129.668C63.695 125.306 62.2796 122.307 59.4487 120.671L73.6576 128.85C76.4885 130.486 77.9039 133.485 77.9039 137.848V177.109C77.9039 180.053 77.2507 183.107 75.9441 186.27C74.6375 189.541 72.8954 192.54 70.7178 195.267C68.5402 198.102 66.1993 200.229 63.695 201.647L28.4178 222.095C24.607 224.276 21.2861 224.549 18.4552 222.913L4.24634 214.734Z" fill="black"/>
<path d="M120.445 94.4972L155.722 74.0489C159.424 71.8677 162.691 71.5951 165.522 73.231C168.461 74.8668 169.931 77.8659 169.931 82.2282V160.75C169.931 163.585 169.224 166.639 167.808 169.911C166.502 173.183 164.759 176.236 162.582 179.072C160.513 181.798 158.227 183.87 155.722 185.288L178.424 172.201V188.56L120.445 222.095C116.634 224.276 113.313 224.549 110.483 222.913C107.652 221.277 106.236 218.278 106.236 213.916V119.035C106.236 116.091 106.89 113.037 108.196 109.874C109.503 106.603 111.245 103.604 113.422 100.877C115.6 98.0416 117.941 95.915 120.445 94.4972ZM155.722 185.288V90.4076L120.445 110.856V205.736L155.722 185.288ZM178.424 172.201L155.722 185.288L141.513 177.109L164.215 164.022L178.424 172.201ZM155.722 185.288L120.445 205.736L106.236 197.557L141.513 177.109L155.722 185.288ZM155.722 90.4076V185.288L141.513 177.109V82.2282L155.722 90.4076ZM165.685 73.231C162.745 71.5951 159.424 71.8677 155.722 74.0489L120.445 94.4972C117.941 95.915 115.6 98.0416 113.422 100.877C111.245 103.604 109.503 106.603 108.196 109.874C106.89 113.037 106.236 116.091 106.236 119.035V213.916C106.236 218.278 107.652 221.277 110.483 222.913L96.2737 214.734C93.4428 213.098 92.0273 210.099 92.0273 205.736V110.856C92.0273 107.911 92.6806 104.858 93.9872 101.695C95.2937 98.4233 97.0358 95.4242 99.2134 92.6978C101.391 89.8623 103.732 87.7357 106.236 86.3179L141.513 65.8696C145.324 63.6884 148.645 63.4158 151.476 65.0516L165.685 73.231Z" fill="black"/>
<path d="M247.75 201.647L212.472 222.095C208.662 224.276 205.341 224.549 202.51 222.913C199.679 221.277 198.264 218.278 198.264 213.916V109.22L212.472 101.041V205.736L247.75 185.288V80.5924L261.959 72.413V177.109C261.959 179.944 261.251 182.998 259.835 186.27C258.529 189.541 256.787 192.595 254.609 195.43C252.54 198.157 250.254 200.229 247.75 201.647ZM261.959 72.413L247.75 80.5924L233.541 72.413L247.75 64.2337L261.959 72.413ZM247.75 80.5924V185.288L233.541 177.109V72.413L247.75 80.5924ZM247.75 185.288L212.472 205.736L198.264 197.557L233.541 177.109L247.75 185.288ZM212.472 101.041L198.264 109.22L184.055 101.041L198.264 92.8614L212.472 101.041ZM198.264 109.22V213.916C198.264 218.278 199.679 221.277 202.51 222.913L188.301 214.734C185.47 213.098 184.055 210.099 184.055 205.736V101.041L198.264 109.22Z" fill="black"/>
<path d="M304.5 94.4972L339.777 74.0489C343.479 71.8677 346.745 71.5951 349.576 73.231C352.516 74.8668 353.986 77.8659 353.986 82.2282V186.924L339.777 195.103V162.386L304.5 182.834V215.552L290.291 223.731V119.035C290.291 116.091 290.944 113.037 292.251 109.874C293.557 106.603 295.299 103.604 297.477 100.877C299.655 98.0416 301.995 95.915 304.5 94.4972ZM339.777 146.027V90.4076L304.5 110.856V166.476L339.777 146.027ZM339.777 162.386V195.103L325.568 186.924V154.206L339.777 162.386ZM339.777 90.4076V146.027L325.568 137.848V82.2282L339.777 90.4076ZM339.777 146.027L304.5 166.476L290.291 158.296L325.568 137.848L339.777 146.027ZM349.74 73.231C346.8 71.5951 343.479 71.8677 339.777 74.0489L304.5 94.4972C301.995 95.915 299.655 98.0416 297.477 100.877C295.299 103.604 293.557 106.603 292.251 109.874C290.944 113.037 290.291 116.091 290.291 119.035V223.731L276.082 215.552V110.856C276.082 107.911 276.735 104.858 278.042 101.695C279.348 98.4233 281.09 95.4242 283.268 92.6978C285.446 89.8623 287.787 87.7357 290.291 86.3179L325.568 65.8696C329.379 63.6884 332.7 63.4158 335.531 65.0516L349.74 73.231Z" fill="black"/>
<path d="M431.804 162.386L396.527 182.834V215.552L382.318 223.731V102.677L431.804 74.0489C435.506 71.8677 438.773 71.5951 441.604 73.231C444.543 74.8668 446.013 77.8659 446.013 82.2282V121.489C446.013 124.325 445.305 127.378 443.89 130.65C442.583 133.922 440.841 136.975 438.664 139.811C436.595 142.537 434.309 144.609 431.804 146.027C435.506 143.846 438.773 143.573 441.604 145.209C444.543 146.845 446.013 149.844 446.013 154.206V186.924L431.804 195.103V162.386ZM431.804 146.027V90.4076L396.527 110.856V166.476L431.804 146.027ZM431.804 162.386V195.103L417.595 186.924V154.206L431.804 162.386ZM441.767 145.209C438.827 143.573 435.506 143.846 431.804 146.027L417.595 137.848C421.406 135.667 424.727 135.394 427.558 137.03L441.767 145.209ZM431.804 90.4076V146.027L417.595 137.848V82.2282L431.804 90.4076ZM431.804 146.027L396.527 166.476L382.318 158.296L417.595 137.848L431.804 146.027ZM441.767 73.231C438.827 71.5951 435.506 71.8677 431.804 74.0489L382.318 102.677L368.109 94.4972L417.595 65.8696C421.406 63.6884 424.727 63.4158 427.558 65.0516L441.767 73.231ZM382.318 102.677V223.731L368.109 215.552V94.4972L382.318 102.677Z" fill="black"/>
<path d="M474.345 125.579C474.345 122.634 474.999 119.581 476.305 116.418C477.612 113.146 479.354 110.147 481.532 107.421C483.709 104.585 486.05 102.458 488.554 101.041L538.041 72.413V88.7717L488.554 117.399V153.389L538.041 124.761V141.119L488.554 169.747V205.736L538.041 177.109V193.467L488.554 222.095C484.744 224.276 481.423 224.549 478.592 222.913C475.761 221.277 474.345 218.278 474.345 213.916V125.579ZM538.041 177.109L488.554 205.736L474.345 197.557L523.832 168.929L538.041 177.109ZM538.041 124.761L488.554 153.389L474.345 145.209L523.832 116.581L538.041 124.761ZM538.041 72.413L488.554 101.041C486.05 102.458 483.709 104.585 481.532 107.421C479.354 110.147 477.612 113.146 476.305 116.418C474.999 119.581 474.345 122.634 474.345 125.579V213.916C474.345 218.278 475.761 221.277 478.592 222.913L464.383 214.734C461.552 213.098 460.137 210.099 460.137 205.736V117.399C460.137 114.455 460.79 111.401 462.096 108.239C463.403 104.967 465.145 101.968 467.323 99.2412C469.5 96.4057 471.841 94.2791 474.345 92.8614L523.832 64.2337L538.041 72.413Z" fill="black"/>
<path d="M684.795 69.3914L619.555 32.7041L593.277 47.3791L619.554 62.1557L658.517 84.0663L684.795 69.3914Z" fill="#FABDFF"/>
<path d="M711.072 84.0663V113.416L684.795 128.091L658.517 113.443L658.517 113.416L658.517 84.0663L684.795 69.3914L711.072 84.0663Z" fill="#FABDFF"/>
<path d="M711.072 254.296C711.072 262.122 708.354 267.503 702.917 270.438L676.942 285.113C671.706 288.048 665.565 287.559 658.517 283.646L593.277 246.958C588.646 244.415 584.317 240.599 580.29 235.512C576.263 230.62 573.041 225.239 570.624 219.369C568.208 213.695 567 208.216 567 202.933L567 173.584L593.277 158.909L619.555 173.584V202.933L658.517 224.801V183.856L593.277 147.169C588.646 144.625 584.317 140.809 580.29 135.722C576.263 130.83 573.041 125.45 570.624 119.58C568.901 115.531 567.792 111.583 567.298 107.733C567.099 106.188 567 104.658 567 103.144V32.6767C567.006 24.865 569.624 19.4933 574.853 16.5617L601.13 1.88678C606.366 -1.04821 612.507 -0.559046 619.555 3.35426V32.7041L593.277 47.3791L619.554 62.1557L619.555 103.216L619.555 103.144L697.48 150.984C701.507 156.071 704.729 161.55 707.145 167.42C709.763 173.29 711.072 178.769 711.072 183.856L711.072 254.296Z" fill="#FABDFF"/>
<path d="M619.555 3.35426L684.795 40.0416V69.3914L619.555 32.7041V3.35426Z" fill="#FABDFF"/>
<path d="M707.145 67.6304C709.763 73.5004 711.072 78.979 711.072 84.0663L684.795 69.3914V40.0416C689.426 42.5853 693.654 46.3028 697.48 51.1945C701.507 56.2818 704.729 61.7604 707.145 67.6304Z" fill="#FABDFF"/>
<path fill-rule="evenodd" clip-rule="evenodd" d="M828.449 32.8061L793.317 54.7166C789.141 57.2602 785.237 61.0757 781.606 66.163C777.974 71.0547 775.069 76.4355 772.89 82.3055C770.712 87.9798 769.622 93.4584 769.622 98.7414V239.621V268.971C769.622 276.797 771.983 282.178 776.703 285.113C781.424 288.048 786.962 287.559 793.317 283.646L890 223.478V194.129L874.24 184.367C875.305 180.596 875.838 177.002 875.838 173.584V32.7042C875.838 24.8775 873.387 19.4967 868.485 16.5617C866.474 15.3119 864.332 14.683 862.059 14.675C861.997 14.6748 861.934 14.675 861.872 14.6758C858.865 14.7101 855.629 15.8235 852.164 18.016C852.158 18.0204 852.151 18.0248 852.144 18.0292L828.531 32.7549L828.449 32.7042V32.8061ZM828.449 62.156L793.317 84.0665V224.844L828.449 202.934V62.156Z" fill="#95EBE7"/>
<path d="M776.703 285.113C771.983 282.178 769.622 276.797 769.622 268.971V239.621V98.7414C769.622 93.4584 770.712 87.9798 772.89 82.3055C775.069 76.4355 777.974 71.0547 781.606 66.163C785.237 61.0757 789.141 57.2602 793.317 54.7166L828.449 32.8061V32.7042L828.531 32.7549L852.144 18.0292L852.164 18.016C855.629 15.8235 858.865 14.7101 861.872 14.6758C861.934 14.675 861.997 14.6748 862.059 14.675C864.41 14.6669 866.642 15.2958 868.757 16.5617L845.063 1.88678C840.342 -1.04821 834.804 -0.559047 828.449 3.35428L769.622 40.0416C765.446 42.5853 761.543 46.4008 757.911 51.4881C754.28 56.3797 751.375 61.7606 749.196 67.6305C747.017 73.3048 745.928 78.7835 745.928 84.0665V254.296C745.928 262.122 748.288 267.503 753.009 270.438L776.703 285.113Z" fill="#95EBE7"/>
<path d="M966.486 94.807C970.297 92.6259 973.618 92.3532 976.449 93.9891C979.28 95.625 980.695 98.624 980.695 102.986V184.78L1001.93 172.511V74.3587L1016.14 66.1793V180.69L980.695 201.139C976.993 203.32 973.672 203.592 970.733 201.956C967.902 200.321 966.486 197.322 966.486 192.959V111.166L945.418 123.435V221.587L931.209 229.766V115.255L966.486 94.807ZM1016.14 66.1793L1001.93 74.3587L987.718 66.1793L1001.93 58L1016.14 66.1793ZM1001.93 74.3587V172.511L987.718 164.331V66.1793L1001.93 74.3587ZM1001.93 172.511L980.695 184.78L966.486 176.601L987.718 164.331L1001.93 172.511ZM966.486 111.166V192.959C966.486 197.322 967.902 200.321 970.733 201.956L956.687 193.777C953.856 192.141 952.441 189.142 952.441 184.78V102.986L966.486 111.166ZM976.449 93.9891C973.618 92.3532 970.297 92.6259 966.486 94.807L931.209 115.255L917 107.076L952.441 86.6277C956.143 84.4465 959.409 84.1739 962.24 85.8097L976.449 93.9891ZM931.209 115.255V229.766L917 221.587V107.076L931.209 115.255Z" fill="black"/>
<path d="M1044.45 131.614C1044.45 128.669 1045.1 125.616 1046.41 122.453C1047.72 119.181 1049.46 116.182 1051.63 113.456C1053.81 110.62 1056.15 108.494 1058.66 107.076L1108.14 78.4483V94.807L1058.66 123.435V159.424L1108.14 130.796V147.155L1058.66 175.783V211.772L1108.14 183.144V199.503L1058.66 228.13C1054.85 230.312 1051.53 230.584 1048.7 228.948C1045.86 227.312 1044.45 224.313 1044.45 219.951V131.614ZM1108.14 183.144L1058.66 211.772L1044.45 203.592L1093.93 174.965L1108.14 183.144ZM1108.14 130.796L1058.66 159.424L1044.45 151.244L1093.93 122.617L1108.14 130.796ZM1108.14 78.4483L1058.66 107.076C1056.15 108.494 1053.81 110.62 1051.63 113.456C1049.46 116.182 1047.72 119.181 1046.41 122.453C1045.1 125.616 1044.45 128.669 1044.45 131.614V219.951C1044.45 224.313 1045.86 227.312 1048.7 228.948L1034.49 220.769C1031.66 219.133 1030.24 216.134 1030.24 211.772V123.435C1030.24 120.49 1030.89 117.437 1032.2 114.274C1033.51 111.002 1035.25 108.003 1037.43 105.277C1039.6 102.441 1041.94 100.314 1044.45 98.8967L1093.93 70.269L1108.14 78.4483Z" fill="black"/>
<path d="M1164.73 226.495C1161.03 228.676 1157.76 228.948 1154.93 227.312C1152.1 225.677 1150.69 222.678 1150.69 218.315L1171.75 206.046V94.807L1185.96 86.6277V197.867L1207.19 185.598V74.3587L1221.4 66.1793V161.06C1221.4 163.895 1220.7 166.949 1219.28 170.221C1217.97 173.492 1216.23 176.546 1214.05 179.381C1211.98 182.108 1209.7 184.18 1207.19 185.598C1207.19 188.433 1206.54 191.487 1205.23 194.759C1203.93 198.03 1202.19 201.084 1200.01 203.92C1197.83 206.646 1195.49 208.718 1192.99 210.136L1164.73 226.495ZM1150.69 218.315C1146.87 220.496 1143.55 220.769 1140.72 219.133C1137.89 217.497 1136.48 214.498 1136.48 210.136V115.255L1150.69 107.076V218.315ZM1221.4 66.1793L1207.19 74.3587L1192.99 66.1793L1207.19 58L1221.4 66.1793ZM1207.19 74.3587V185.598L1192.99 177.418V66.1793L1207.19 74.3587ZM1207.19 185.598L1185.96 197.867L1171.75 189.687L1192.99 177.418L1207.19 185.598ZM1171.75 206.046L1150.69 218.315L1136.48 210.136L1157.71 197.867L1171.75 206.046ZM1150.69 218.315C1150.69 222.678 1152.1 225.677 1154.93 227.312L1140.72 219.133C1137.89 217.497 1136.48 214.498 1136.48 210.136L1150.69 218.315ZM1185.96 86.6277L1171.75 94.807L1157.71 86.6277L1171.75 78.4483L1185.96 86.6277ZM1171.75 94.807V206.046L1157.71 197.867V86.6277L1171.75 94.807ZM1150.69 107.076L1136.48 115.255L1122.27 107.076L1136.48 98.8967L1150.69 107.076ZM1136.48 115.255V210.136C1136.48 214.498 1137.89 217.497 1140.72 219.133L1126.51 210.954C1123.68 209.318 1122.27 206.319 1122.27 201.956V107.076L1136.48 115.255Z" fill="black"/>
<path d="M1263.92 172.511C1260.11 174.692 1256.79 174.965 1253.96 173.329C1251.13 171.693 1249.72 168.694 1249.72 164.331V125.071C1249.72 122.126 1250.37 119.072 1251.68 115.91C1252.98 112.638 1254.72 109.639 1256.9 106.912C1259.08 104.077 1261.42 101.95 1263.92 100.533L1299.2 80.0842C1302.9 77.903 1306.17 77.6304 1309 79.2663C1311.94 80.9021 1313.41 83.9012 1313.41 88.2635V111.166L1299.2 119.345V96.4429L1263.92 116.891V156.152L1299.2 135.704C1302.9 133.523 1306.17 133.25 1309 134.886C1311.94 136.522 1313.41 139.521 1313.41 143.883V183.144C1313.41 185.979 1312.7 189.033 1311.29 192.305C1309.98 195.577 1308.24 198.63 1306.06 201.466C1303.99 204.192 1301.71 206.264 1299.2 207.682L1263.92 228.13C1260.11 230.312 1256.79 230.584 1253.96 228.948C1251.13 227.312 1249.72 224.313 1249.72 219.951V203.592L1263.92 195.413V211.772L1299.2 191.323V152.062L1263.92 172.511ZM1299.2 152.062V191.323L1284.99 183.144V143.883L1299.2 152.062ZM1299.2 191.323L1263.92 211.772L1249.72 203.592L1284.99 183.144L1299.2 191.323ZM1299.2 96.4429V119.345L1284.99 111.166V88.2635L1299.2 96.4429ZM1263.92 195.413L1249.72 203.592L1235.51 195.413L1249.72 187.234L1263.92 195.413ZM1249.72 203.592V219.951C1249.72 224.313 1251.13 227.312 1253.96 228.948L1239.75 220.769C1236.92 219.133 1235.51 216.134 1235.51 211.772V195.413L1249.72 203.592ZM1309.16 134.886C1306.22 133.25 1302.9 133.523 1299.2 135.704L1263.92 156.152L1249.72 147.973L1284.99 127.524C1288.8 125.343 1292.13 125.071 1294.96 126.706L1309.16 134.886ZM1309.16 79.2663C1306.22 77.6304 1302.9 77.903 1299.2 80.0842L1263.92 100.533C1261.42 101.95 1259.08 104.077 1256.9 106.912C1254.72 109.639 1252.98 112.638 1251.68 115.91C1250.37 119.072 1249.72 122.126 1249.72 125.071V164.331C1249.72 168.694 1251.13 171.693 1253.96 173.329L1239.75 165.149C1236.92 163.514 1235.51 160.514 1235.51 156.152V116.891C1235.51 113.947 1236.16 110.893 1237.47 107.73C1238.77 104.459 1240.52 101.46 1242.69 98.7331C1244.87 95.8976 1247.21 93.771 1249.72 92.3532L1284.99 71.9049C1288.8 69.7237 1292.13 69.4511 1294.96 71.0869L1309.16 79.2663Z" fill="black"/>
</svg>
